<?xml version="1.0" standalone="no"?>
<!DOCTYPE svg PUBLIC "-//W3C//DTD SVG 20010904//EN"
 "http://www.w3.org/TR/2001/REC-SVG-20010904/DTD/svg10.dtd">
<svg version="1.0" xmlns="http://www.w3.org/2000/svg"
 width="96.000000pt" height="96.000000pt" viewBox="0 0 96.000000 96.000000"
 preserveAspectRatio="xMidYMid meet">
<metadata>
Created by potrace 1.14, written by Peter Selinger 2001-2017
</metadata>
<g transform="translate(0.000000,96.000000) scale(0.100000,-0.100000)"
fill="#000000" stroke="none">
<path d="M385 876 c-35 -16 -75 -52 -75 -68 0 -18 23 -92 31 -102 9 -10 251
-12 267 -2 14 8 42 71 42 94 0 15 -9 21 -42 26 -24 4 -55 19 -75 36 -38 34
-95 40 -148 16z"/>
<path d="M383 670 c-34 -4 -73 -14 -86 -23 -34 -22 -65 -76 -73 -123 -3 -21
-12 -42 -19 -47 -73 -41 -124 -130 -120 -205 4 -60 24 -101 75 -151 l39 -38
148 1 c112 1 148 4 147 14 -1 6 -2 39 -2 71 l-2 60 -51 -3 c-39 -2 -52 2 -59
15 -7 12 -4 20 11 30 24 17 33 83 13 100 -11 9 -11 16 -2 32 6 12 13 38 15 57
6 64 80 102 128 66 16 -12 17 -16 6 -30 -10 -12 -18 -13 -32 -5 -32 16 -59 -5
-59 -48 0 -32 2 -35 24 -31 16 3 27 0 31 -9 8 -22 -3 -33 -31 -33 -16 0 -24
-6 -25 -17 -1 -10 -2 -33 -4 -50 -4 -53 31 -44 81 21 68 87 174 123 269 91 21
-8 41 -12 43 -10 8 8 -32 76 -68 117 -20 24 -44 57 -53 73 -8 17 -27 41 -42
55 -25 23 -34 25 -133 25 -59 1 -135 -2 -169 -5z"/>
<path d="M660 383 c-100 -41 -147 -141 -116 -247 19 -64 76 -121 131 -132 148
-27 258 54 259 191 0 52 -4 70 -27 104 -55 82 -162 119 -247 84z"/>
</g>
</svg>
